<svg width="52" height="40" viewBox="0 0 52 40" fill="none" xmlns="http://www.w3.org/2000/svg">
<rect x="0.5" y="-0.5" width="49.3982" height="37.989" rx="9.5" transform="matrix(1 0 0 -1 0.780762 38.5539)" fill="#F4F4F4" stroke="black"/>
<path d="M0.780762 14.1551H16.8166M16.8166 14.1551L19.6801 6.29861L25.4072 1.13831M16.8166 14.1551L18.5347 21.5411L16.8166 28.9271M16.8166 28.9271H0.780762M16.8166 28.9271L20.2528 34.967L26.5526 38.9806" stroke="black"/>
<path d="M50.6063 14.1551L34.5705 14.1551M34.5705 14.1551L31.707 6.29862L25.9799 1.13831M34.5705 14.1551L32.8524 21.5411L34.5705 28.9271M34.5705 28.9271L50.6063 28.9271M34.5705 28.9271L31.1343 34.967L24.8345 38.9806" stroke="black"/>
</svg>
